{"asset":{"copyright":"","generator":"Aspose GLTF","version":"2.0"},"extensionsUsed":["KHR_materials_unlit"],"accessors":[{"name":"POSITION","bufferView":0,"componentType":5126,"count":8943,"max":[7147.576171875,-6895.93115234375,4.146839664188884E-13],"min":[5776.501953125,-8032.65478515625,0.0],"type":"VEC3"},{"bufferView":1,"componentType":5123,"count":17580,"type":"SCALAR"}],"bufferViews":[{"buffer":0,"byteLength":107316,"byteStride":12,"target":34962},{"buffer":0,"byteLength":35160,"byteOffset":107316,"target":34963}],"buffers":[{"byteLength":142476,"uri":"model.bin"}],"materials":[{"extensions":{"KHR_materials_unlit":{}},"name":"material1","pbrMetallicRoughness":{}}],"meshes":[{"name":"mesh","primitives":[{"attributes":{"POSITION":0},"indices":1,"material":0,"mode":1}]}],"nodes":[{"mesh":0}],"scenes":[{"name":"Default","nodes":[0]}]}